<?xml version="1.0" encoding="utf-8"?>
<!-- Generator: Adobe Illustrator 23.0.2, SVG Export Plug-In . SVG Version: 6.00 Build 0)  -->
<svg version="1.1" id="Layer_1" xmlns="http://www.w3.org/2000/svg" xmlns:xlink="http://www.w3.org/1999/xlink" x="0px" y="0px"
	 viewBox="0 0 38.6 39.5" style="enable-background:new 0 0 38.6 39.5;" xml:space="preserve">
<style type="text/css">
	.st0{fill:#FFFFFF;}
	.st1{filter:url(#Adobe_OpacityMaskFilter);}
	.st2{fill:url(#SVGID_2_);}
	.st3{fill:url(#SVGID_3_);}
	.st4{fill:url(#SVGID_4_);}
	.st5{fill:url(#SVGID_5_);}
	.st6{fill:url(#SVGID_6_);}
	.st7{fill:url(#SVGID_7_);}
	.st8{fill:url(#SVGID_8_);}
	.st9{fill:url(#SVGID_9_);}
	.st10{fill:url(#SVGID_10_);}
	.st11{fill:url(#SVGID_11_);}
	.st12{fill:url(#SVGID_12_);}
	.st13{fill:url(#SVGID_13_);}
	.st14{fill:url(#SVGID_14_);}
	.st15{fill:url(#SVGID_15_);}
	.st16{mask:url(#SVGID_1_);}
</style>
<g>
	<path class="st0" d="M17.8,38c0,0.8,0.6,1.4,1.4,1.4c0.8,0,1.4-0.6,1.4-1.4c0-0.8-0.6-1.4-1.4-1.4C18.5,36.6,17.8,37.2,17.8,38z"/>
	<defs>
		<filter id="Adobe_OpacityMaskFilter" filterUnits="userSpaceOnUse" x="0" y="0" width="38.6" height="38.6">
			<feFlood  style="flood-color:white;flood-opacity:1" result="back"/>
			<feBlend  in="SourceGraphic" in2="back" mode="normal"/>
		</filter>
	</defs>
	<mask maskUnits="userSpaceOnUse" x="0" y="0" width="38.6" height="38.6" id="SVGID_1_">
		<g class="st1">
			<g>
				<g>
					<g>
						
							<radialGradient id="SVGID_2_" cx="-627.6943" cy="38.0274" r="7.0977" gradientTransform="matrix(-1 0 0 1 -608.417 0)" gradientUnits="userSpaceOnUse">
							<stop  offset="0" style="stop-color:#000000"/>
							<stop  offset="0.1784" style="stop-color:#272727"/>
							<stop  offset="0.5801" style="stop-color:#8B8B8B"/>
							<stop  offset="1" style="stop-color:#FAFAFA"/>
						</radialGradient>
						<path class="st2" d="M12.2,38c0,3.9,3.2,7.1,7.1,7.1c3.9,0,7.1-3.2,7.1-7.1c0-3.9-3.2-7.1-7.1-7.1
							C15.4,30.9,12.2,34.1,12.2,38z"/>
						
							<radialGradient id="SVGID_3_" cx="131.458" cy="17.1504" r="5.7207" gradientTransform="matrix(1 0 0 1 -118.667 0)" gradientUnits="userSpaceOnUse">
							<stop  offset="0" style="stop-color:#000000"/>
							<stop  offset="0.1784" style="stop-color:#272727"/>
							<stop  offset="0.5801" style="stop-color:#8B8B8B"/>
							<stop  offset="1" style="stop-color:#FAFAFA"/>
						</radialGradient>
						<circle class="st3" cx="12.8" cy="17.2" r="5.7"/>
						
							<radialGradient id="SVGID_4_" cx="149.0479" cy="4.1494" r="3.9355" gradientTransform="matrix(1 0 0 1 -118.667 0)" gradientUnits="userSpaceOnUse">
							<stop  offset="0" style="stop-color:#000000"/>
							<stop  offset="0.1784" style="stop-color:#272727"/>
							<stop  offset="0.5801" style="stop-color:#8B8B8B"/>
							<stop  offset="1" style="stop-color:#FAFAFA"/>
						</radialGradient>
						<path class="st4" d="M34.3,4.1c0,2.2-1.8,3.9-3.9,3.9c-2.2,0-3.9-1.8-3.9-3.9c0-2.2,1.8-3.9,3.9-3.9C32.6,0.2,34.3,2,34.3,4.1
							z"/>
					</g>
					<g>
						
							<linearGradient id="SVGID_5_" gradientUnits="userSpaceOnUse" x1="220.9276" y1="-255.8123" x2="222.4924" y2="-258.399" gradientTransform="matrix(0.8059 0.592 -0.592 0.8059 -317.2172 100.6133)">
							<stop  offset="0" style="stop-color:#FFFFFF"/>
							<stop  offset="0.7814" style="stop-color:#000000"/>
						</linearGradient>
						<polygon class="st5" points="13.8,21.7 16.1,28.7 12.8,29.2 10,21.1 						"/>
						
							<linearGradient id="SVGID_6_" gradientUnits="userSpaceOnUse" x1="-225.1954" y1="367.1056" x2="-223.5347" y2="364.3601" gradientTransform="matrix(-0.2995 0.9541 0.9541 0.2995 -399.7871 128.0578)">
							<stop  offset="0" style="stop-color:#FFFFFF"/>
							<stop  offset="0.7814" style="stop-color:#000000"/>
						</linearGradient>
						<polygon class="st6" points="13.9,18.9 17.1,28.5 20,27.1 17.1,18.7 						"/>
						
							<linearGradient id="SVGID_7_" gradientUnits="userSpaceOnUse" x1="-442.2773" y1="-470.7491" x2="-438.8363" y2="-476.4377" gradientTransform="matrix(-0.3264 -0.9452 -0.9452 0.3264 -574.6255 -247.6424)">
							<stop  offset="0" style="stop-color:#FFFFFF;stop-opacity:0"/>
							<stop  offset="0.7814" style="stop-color:#000000"/>
						</linearGradient>
						<polygon class="st7" points="22.4,15.4 14.1,9.5 12,13.3 13.9,18.9 						"/>
						
							<linearGradient id="SVGID_8_" gradientUnits="userSpaceOnUse" x1="-604.9152" y1="-246.4805" x2="-603.3885" y2="-249.0042" gradientTransform="matrix(-1 1.200000e-03 -1.200000e-03 -1 -583.825 -235.1647)">
							<stop  offset="0" style="stop-color:#FFFFFF"/>
							<stop  offset="0.7814" style="stop-color:#000000"/>
						</linearGradient>
						<polygon class="st8" points="24.3,15.5 16.1,9.6 18.4,7.6 25.7,12.1 						"/>
						
							<linearGradient id="SVGID_9_" gradientUnits="userSpaceOnUse" x1="27.5933" y1="-479.2918" x2="29.1311" y2="-481.834" gradientTransform="matrix(0.8072 -0.5903 -0.5903 -0.8072 -281.5662 -355.9093)">
							<stop  offset="0" style="stop-color:#FFFFFF"/>
							<stop  offset="0.7814" style="stop-color:#000000"/>
						</linearGradient>
						<polygon class="st9" points="24.2,20.2 27.3,10.9 24.4,10.2 21.2,18.6 						"/>
						
							<linearGradient id="SVGID_10_" gradientUnits="userSpaceOnUse" x1="-457.1201" y1="198.2235" x2="-455.657" y2="195.8047" gradientTransform="matrix(-0.2956 -0.9553 0.9553 -0.2956 -296.0062 -360.2932)">
							<stop  offset="0" style="stop-color:#FFFFFF"/>
							<stop  offset="0.7814" style="stop-color:#000000"/>
						</linearGradient>
						<polygon class="st10" points="25.2,20.4 27.7,12.7 30.3,14.3 28.1,22.6 						"/>
						
							<linearGradient id="SVGID_11_" gradientUnits="userSpaceOnUse" x1="90.7025" y1="264.4557" x2="92.3411" y2="261.7469" gradientTransform="matrix(0.8126 -0.5827 0.5827 0.8126 -203.1387 -134.5262)">
							<stop  offset="0" style="stop-color:#FFFFFF"/>
							<stop  offset="0.7814" style="stop-color:#000000"/>
						</linearGradient>
						<polygon class="st11" points="19.3,25.1 29.7,25.1 28.6,28.3 19.5,28.3 						"/>
						
							<linearGradient id="SVGID_12_" gradientUnits="userSpaceOnUse" x1="223.5193" y1="76.1011" x2="226.0979" y2="72.2118" gradientTransform="matrix(0.8143 0.5805 0.5805 -0.8143 -201.7243 -47.3321)">
							<stop  offset="0" style="stop-color:#FFFFFF;stop-opacity:0"/>
							<stop  offset="0.7814" style="stop-color:#000000"/>
						</linearGradient>
						<polygon class="st12" points="18.9,24.1 29.7,24.1 28.9,20.6 21.2,20.1 						"/>
					</g>
				</g>
				<g>
					
						<radialGradient id="SVGID_13_" cx="126.7793" cy="3.7353" r="3.3125" gradientTransform="matrix(1 0 0 1 -118.667 0)" gradientUnits="userSpaceOnUse">
						<stop  offset="0" style="stop-color:#000000"/>
						<stop  offset="0.1784" style="stop-color:#272727"/>
						<stop  offset="0.5801" style="stop-color:#8B8B8B"/>
						<stop  offset="1" style="stop-color:#FAFAFA"/>
					</radialGradient>
					<circle class="st13" cx="8.1" cy="3.7" r="3.3"/>
				</g>
				<g>
					
						<radialGradient id="SVGID_14_" cx="119.5606" cy="25.0605" r="3.3125" gradientTransform="matrix(1 0 0 1 -118.667 0)" gradientUnits="userSpaceOnUse">
						<stop  offset="0" style="stop-color:#000000"/>
						<stop  offset="0.1784" style="stop-color:#272727"/>
						<stop  offset="0.5801" style="stop-color:#8B8B8B"/>
						<stop  offset="1" style="stop-color:#FAFAFA"/>
					</radialGradient>
					<circle class="st14" cx="0.9" cy="25.1" r="3.3"/>
				</g>
				<g>
					
						<radialGradient id="SVGID_15_" cx="156.3389" cy="25.0605" r="3.3125" gradientTransform="matrix(1 0 0 1 -118.667 0)" gradientUnits="userSpaceOnUse">
						<stop  offset="0" style="stop-color:#000000"/>
						<stop  offset="0.1784" style="stop-color:#272727"/>
						<stop  offset="0.5801" style="stop-color:#8B8B8B"/>
						<stop  offset="1" style="stop-color:#FAFAFA"/>
					</radialGradient>
					<circle class="st15" cx="37.7" cy="25.1" r="3.3"/>
				</g>
			</g>
		</g>
	</mask>
	<g class="st16">
		<path class="st0" d="M19.3,1c10.1,0,18.3,8.2,18.3,18.3s-8.2,18.3-18.3,18.3C9.2,37.6,1,29.4,1,19.3S9.2,1,19.3,1 M19.3,0
			C8.6,0,0,8.6,0,19.3c0,10.6,8.6,19.3,19.3,19.3c10.6,0,19.3-8.6,19.3-19.3C38.6,8.6,29.9,0,19.3,0L19.3,0z"/>
		<path class="st0" d="M0.9,25.1h14l4.4,13.5l4.4-13.5l14,0L26.4,17l4.3-13.2l-11.4,8.2L7.9,3.7L12.2,17L0.9,25.1z M9.8,6.3l8.7,6.2
			c-1.4,1-4,2.9-5.4,3.8L9.8,6.3z M13.4,17.4c1.7-1.2,4.7-3.3,5.9-4.2l5.9,4.2L23,24.1h-7.4L13.4,17.4z M25.5,16.4l-5.4-3.8l8.6-6.2
			L25.5,16.4z M34.6,24.1l-10.5,0l2-6.1L34.6,24.1z M15.9,25.1h6.7l-3.4,10.3L15.9,25.1z M14.5,24.1H4l8.5-6.1L14.5,24.1z"/>
	</g>
	<path class="st0" d="M13.8,17.1c0,0.6-0.4,1-1,1c-0.6,0-1-0.4-1-1s0.4-1,1-1C13.3,16.2,13.8,16.6,13.8,17.1z"/>
	<circle class="st0" cx="30.4" cy="4.1" r="0.5"/>
	<g>
		<polygon class="st0" points="29.1,18.9 28.8,20 34.6,24.1 18.9,24.1 19.3,25.1 37.7,25.1 		"/>
		<polygon class="st0" points="11,24.1 4,24.1 8.5,20.9 7.9,20.1 0.9,25.1 11.4,25.1 		"/>
		<polygon class="st0" points="11.5,11.6 9.8,6.3 22.4,15.4 22.8,14.4 7.9,3.7 10.5,11.9 		"/>
	</g>
</g>
</svg>
